<svg t="1595755549412" class="icon" viewBox="0 0 1024 1024" version="1.1" xmlns="http://www.w3.org/2000/svg" p-id="2235" width="200" height="200"><path d="M790.471111 342.812444h-9.756444c4.465778-19.911111 6.912-40.590222 6.912-61.838222C787.626667 125.781333 661.845333 0 506.624 0 351.459556 0 225.649778 125.781333 225.649778 281.031111c0 21.219556 2.417778 41.898667 6.912 61.809778h-9.728a151.751111 151.751111 0 1 0 0 303.502222h92.16V460.8H698.311111v185.486222h92.16a151.751111 151.751111 0 0 0 0-303.473778" fill="#3193FF" p-id="2236"></path><path d="M314.993778 722.773333H222.435556a16.981333 16.981333 0 0 0-12.003556 29.013334l250.737778 250.737777a64.369778 64.369778 0 0 0 91.022222 0l250.737778-250.737777a17.009778 17.009778 0 0 0-12.032-29.013334H698.311111v-76.458666H314.993778v76.458666z" fill="#FFD000" p-id="2237"></path><path d="M314.993778 646.257778H698.311111V460.8H314.993778z" fill="#006FD9" p-id="2238"></path></svg>