<svg t="1595754224248" class="icon" viewBox="0 0 1084 1024" version="1.1" xmlns="http://www.w3.org/2000/svg" p-id="2085" width="200" height="200"><path d="M667.497412 1002.315294H123.783529A123.783529 123.783529 0 0 1 0 878.531765V123.783529A123.783529 123.783529 0 0 1 123.783529 0h543.713883a123.783529 123.783529 0 0 1 123.783529 123.783529v754.748236a123.783529 123.783529 0 0 1-123.783529 123.783529" fill="#F9D11F" p-id="2086"></path><path d="M718.215529 833.505882L1018.578824 533.082353a149.775059 149.775059 0 0 0-211.817412-211.757177L506.428235 621.718588v211.787294h211.787294z" fill="#4C86C6" p-id="2087"></path><path d="M147.696941 833.445647h358.701177v-94.930823H147.696941zM147.696941 232.116706h495.887059V137.155765H147.696941zM284.852706 390.354824h232.116706V295.393882H284.852706z" fill="#FFFFFF" p-id="2088"></path><path d="M506.398118 621.688471v211.787294h211.787294l73.095529-73.065412V336.835765z" fill="#1565B2" p-id="2089"></path></svg>