<svg t="1595753275947" class="icon" viewBox="0 0 1264 1024" version="1.1" xmlns="http://www.w3.org/2000/svg" p-id="1314" width="200" height="200"><path d="M206.095059 631.356235v372.856471h302.652235V620.815059h244.766118v383.337412h302.652235V631.356235L631.115294 206.305882z" fill="#ED2061" p-id="1315"></path><path d="M1239.612235 596.239059l-183.446588-183.416471v218.563765l74.179765 74.149647c15.058824 15.058824 34.846118 22.618353 54.633412 22.618353a77.281882 77.281882 0 0 0 54.633411-131.915294M22.648471 596.239059a77.281882 77.281882 0 0 0 109.266823 109.327059l74.179765-74.179765v-218.593882L22.648471 596.239059z" fill="#F9D11F" p-id="1316"></path><path d="M610.213647 8.643765L206.095059 412.822588v218.533647L631.115294 206.305882l425.050353 425.050353v-218.563764L652.047059 8.643765a29.575529 29.575529 0 0 0-41.803294 0" fill="#FF7E50" p-id="1317"></path></svg>