<svg t="1595753925178" class="icon" viewBox="0 0 1255 1024" version="1.1" xmlns="http://www.w3.org/2000/svg" p-id="1616" width="200" height="200"><path d="M563.740099 704.354881a174.835343 174.835343 0 1 1 247.240231-247.24023l65.071911 65.038879 65.03888-65.071911a174.736249 174.736249 0 0 1 227.5535-16.68087c67.053797-111.778349 52.718157-258.768199-43.667546-355.120872a290.97384 290.97384 0 0 0-411.538549 0l-108.310049 108.277018L496.884491 85.246846a290.97384 290.97384 0 0 0-411.57158 0 290.97384 290.97384 0 0 0 0 411.538548l108.310049 108.277018 411.538549 411.538548 135.42885-135.42885-111.778349-111.778349-65.071911-65.071911z" fill="#F83CB6" p-id="1617"></path><path d="M1188.331351 457.114651a176.883291 176.883291 0 0 0-19.68673-16.713902 288.562546 288.562546 0 0 1-43.634515 56.384645l-108.277018 108.277018-276.142729 276.142729 135.428851 135.428851 247.24023-247.240231 65.071911-65.071911a174.835343 174.835343 0 0 0 0-247.207199" fill="#A267F8" p-id="1618"></path><path d="M1125.010106 496.818426a289.553489 289.553489 0 0 0 43.601484-56.417677 174.736249 174.736249 0 0 0-227.520469 16.713902l-65.071911 65.071911-65.071912-65.071911a174.835343 174.835343 0 1 0-247.207199 247.24023l65.071911 65.071911 111.778349 111.811381 276.142729-276.14273 108.277018-108.277017z" fill="#7E42B9" p-id="1619"></path></svg>