<svg t="1595754091479" class="icon" viewBox="0 0 1024 1024" version="1.1" xmlns="http://www.w3.org/2000/svg" p-id="1767" width="200" height="200"><path d="M546.334118 258.198588V106.315294h288.527058V57.825882c0-31.924706-25.840941-57.825882-57.825882-57.825882H103.002353a57.825882 57.825882 0 0 0-57.825882 57.825882v886.66353C45.176471 976.414118 71.077647 1002.315294 103.002353 1002.315294H777.035294a57.765647 57.765647 0 0 0 57.795765-57.825882v-63.668706H121.133176v-151.853177H834.861176v-55.717647H121.133176v-151.823058H834.861176v-55.717648h-288.527058v-151.823058h288.527058v-55.717647h-288.527058z" fill="#A267F8" p-id="1768"></path><path d="M834.861176 465.679059h121.494589V313.825882H834.861176z" fill="#F9D11F" p-id="1769"></path><path d="M546.334118 465.679059h288.527058V313.825882h-288.527058z" fill="#7E42B9" p-id="1770"></path><path d="M834.861176 673.249882h121.494589v-151.853176H834.861176z" fill="#F9D11F" p-id="1771"></path><path d="M121.103059 673.249882h713.728v-151.853176H121.103059z" fill="#7E42B9" p-id="1772"></path><path d="M834.861176 258.168471h121.494589V106.315294H834.861176z" fill="#F9D11F" p-id="1773"></path><path d="M546.334118 258.168471h288.527058V106.315294h-288.527058z" fill="#7E42B9" p-id="1774"></path><path d="M834.861176 880.790588h121.494589v-151.853176H834.861176z" fill="#F9D11F" p-id="1775"></path><path d="M121.103059 880.790588h713.728v-151.853176H121.103059z" fill="#7E42B9" p-id="1776"></path><path d="M485.586824 465.709176H121.103059v-81.799529a70.053647 70.053647 0 0 1 70.053647-70.053647h224.37647a70.053647 70.053647 0 0 1 70.053648 70.053647v81.799529zM386.891294 189.831529a83.516235 83.516235 0 1 1-167.03247 0 83.516235 83.516235 0 0 1 167.03247 0" fill="#FFFFFF" p-id="1777"></path></svg>